<?xml version="1.0" encoding="iso-8859-1"?>
<!-- Generator: Adobe Illustrator 19.0.0, SVG Export Plug-In . SVG Version: 6.00 Build 0)  -->
<svg version="1.1" id="Layer_1" xmlns="http://www.w3.org/2000/svg" xmlns:xlink="http://www.w3.org/1999/xlink" x="0px" y="0px"
	 viewBox="0 0 512 512" style="enable-background:new 0 0 512 512;" xml:space="preserve">
<path style="fill:#F7B64C;" d="M312.533,328.533c0,51.2-113.067,51.2-113.067,0V227.2h113.067V328.533z"/>
<path style="fill:#415A6B;" d="M492.8,402.133C487.467,371.2,465.067,345.6,434.133,336l-113.067-36.267
	C300.8,321.067,280.533,342.4,256,353.067c-24.533-10.667-45.867-32-65.067-53.333L76.8,336c-29.867,9.6-52.267,35.2-58.667,66.133
	L0,506.667h512L492.8,402.133z"/>
<polygon style="fill:#CED6E0;" points="312.533,353.067 277.333,506.667 214.4,506.667 192,353.067 "/>
<g>
	<path style="fill:#F3705A;" d="M278.4,408.533l17.067-17.067c0,0-25.6-38.4-38.4-38.4c-13.867,0-38.4,38.4-38.4,38.4l17.067,17.067
		H278.4z"/>
	<polygon style="fill:#F3705A;" points="294.4,506.667 278.4,408.533 233.6,408.533 217.6,506.667 	"/>
</g>
<g>
	<path style="fill:#FFD15C;" d="M372.267,184.533c-2.133,18.133-12.8,30.933-23.467,28.8c-10.667-2.133-18.133-18.133-16-36.267
		s12.8-30.933,23.467-28.8S374.4,166.4,372.267,184.533z"/>
	<path style="fill:#FFD15C;" d="M139.733,184.533c2.133,18.133,12.8,30.933,23.467,28.8c10.667-2.133,18.133-18.133,16-36.267
		s-12.8-30.933-23.467-28.8C145.067,150.4,137.6,166.4,139.733,184.533z"/>
</g>
<path style="fill:#415A6B;" d="M336,203.733c13.867,0,25.6-34.133,26.667-48c2.133-19.2,2.133-34.133,2.133-41.6
	c0-60.8-49.067-108.8-108.8-108.8s-108.8,48-108.8,107.733c0,8.533,1.067,22.4,2.133,41.6c1.067,13.867,12.8,48,26.667,48h160
	V203.733z"/>
<path style="fill:#FFD15C;" d="M256,121.6c-34.133,0-62.933-8.533-85.333-23.467C164.267,116.267,160,137.6,160,160
	c0,74.667,43.733,134.4,97.067,134.4s97.067-59.733,97.067-134.4c0-22.4-4.267-42.667-10.667-61.867
	C318.933,112,290.133,121.6,256,121.6z"/>
<path style="fill:#F3F3F3;" d="M312.533,281.6c-12.8,32-30.933,56.533-56.533,71.467c17.067,16,36.267,41.6,41.6,54.4l35.2-85.333
	L312.533,281.6z"/>
<polygon style="fill:#344A5E;" points="310.4,506.667 364.8,388.267 337.067,360.533 380.8,336 317.867,291.2 277.333,506.667 "/>
<path style="fill:#F3F3F3;" d="M199.467,281.6c12.8,32,30.933,56.533,56.533,71.467c-17.067,16-36.267,41.6-41.6,54.4l-35.2-85.333
	L199.467,281.6z"/>
<polygon style="fill:#344A5E;" points="147.2,388.267 201.6,506.667 234.667,506.667 195.2,291.2 131.2,336 174.933,360.533 "/>
<g>
</g>
<g>
</g>
<g>
</g>
<g>
</g>
<g>
</g>
<g>
</g>
<g>
</g>
<g>
</g>
<g>
</g>
<g>
</g>
<g>
</g>
<g>
</g>
<g>
</g>
<g>
</g>
<g>
</g>
</svg>
